<?xml version="1.0" encoding="UTF-8"?>
<svg width="512pt" height="512pt" version="1.1" viewBox="0 0 512 512" xmlns="http://www.w3.org/2000/svg">
 <path d="m488 280.64c4.418 0 8-3.582 8-8s-3.582-8-8-8c-10.461-0.066406-20.547 3.8789-28.184 11.023-4.8477 4.8242-11.41 7.5312-18.25 7.5312-6.8359 0-13.398-2.707-18.246-7.5312-7.6836-7.0781-17.746-11.008-28.191-11.008-10.445 0-20.512 3.9297-28.191 11.008-4.832 4.8828-11.43 7.6055-18.297 7.543-6.8047 0.050781-13.34-2.6602-18.113-7.5117-7.6758-7.0977-17.746-11.039-28.203-11.039s-20.527 3.9414-28.203 11.039c-4.832 4.8203-11.379 7.5273-18.199 7.5273-6.8242 0-13.371-2.707-18.203-7.5273-7.6406-7.1562-17.73-11.109-28.199-11.055-5.2031-0.082031-10.367 0.87109-15.199 2.8008-6.3633-35.258-22.277-68.09-46.008-94.93-1.5547-1.5859-3.6797-2.4766-5.9023-2.4766-2.2188 0-4.3438 0.89062-5.8984 2.4766-25.402 28.926-41.871 64.594-47.406 102.69l-0.51953 0.40625v0.003906c-4.8125 4.8398-11.352 7.5703-18.176 7.582-6.8242 0.015625-13.375-2.6875-18.203-7.5117-7.6406-7.1562-17.738-11.109-28.207-11.039-4.418 0-8 3.582-8 8s3.582 8 8 8c6.8359-0.0625 13.406 2.6602 18.199 7.5352 7.6172 7.1367 17.684 11.082 28.121 11.023 5.5 0.074219 10.953-1.0156 16-3.1992-0.49609 5.1758-0.80078 10.465-1.0547 15.809-0.007813 0.11719-0.007813 0.23438 0 0.35156-0.47266 11.055-0.44141 22.441 0.21484 34.184 1.6992 29.605 6.4727 58.957 14.246 87.578h-75.727c-4.418 0-8 3.5781-8 8 0 4.418 3.582 8 8 8h464c4.418 0 8-3.582 8-8 0-4.4219-3.582-8-8-8h-302.85c7.625-28.086 12.367-56.875 14.16-85.922 0.042969-0.32422 0.066406-0.64844 0.0625-0.97656l0.046875-0.66406h0.003906c1.2461-20.824 0.48828-41.719-2.2656-62.398 3.7031-2.293 8.0039-3.4414 12.359-3.2969 6.8359-0.054687 13.402 2.6641 18.199 7.5273 7.6797 7.0938 17.75 11.031 28.203 11.031 10.449 0 20.52-3.9375 28.199-11.031 4.8281-4.8242 11.375-7.5312 18.199-7.5312 6.8242 0 13.371 2.707 18.199 7.5312 7.6797 7.0938 17.746 11.031 28.199 11.031s20.523-3.9375 28.203-11.031c4.8281-4.8164 11.375-7.5234 18.199-7.5234 6.8203 0 13.367 2.707 18.199 7.5234 7.6914 7.0977 17.773 11.039 28.238 11.039 10.469 0 20.551-3.9414 28.242-11.039 4.793-4.875 11.359-7.6016 18.199-7.5508zm-386.91 43.496c1.4453 0.21484 2.9102 0.32422 4.375 0.33594 14.895 0 28.953-10.527 41.742-20.121 12.289-9.207 24-17.953 34.23-16.703h0.003906c1.9883 15.918 2.7305 31.965 2.2148 48-16.48-2.2656-32 9.3438-46 19.832-12.062 9.0391-23.551 17.602-33.602 16.742-2.0156-15.949-3.0039-32.012-2.9648-48.086zm41.352-133.98c18.645 23.699 31.129 51.648 36.344 81.352-14.754 0.29688-28.617 10.641-41.168 20-15.457 11.574-26.238 18.84-36.039 16.32 2.3008-40.48 12.926-83.398 40.863-117.67zm-26.059 243.77c-4.2227-14.996-7.5781-30.223-10.047-45.602 14.664-0.39844 28.449-10.656 40.91-20 15.246-11.426 25.922-18.609 35.602-16.426-2.0625 27.754-6.8867 55.23-14.398 82.027zm227.62-216c14.852 0 29.098-5.9023 39.598-16.402 10.504-10.504 16.402-24.746 16.402-39.598 0-14.855-5.8984-29.098-16.402-39.602-10.5-10.5-24.746-16.398-39.598-16.398s-29.098 5.8984-39.598 16.398c-10.504 10.504-16.402 24.746-16.402 39.602 0.015625 14.844 5.9219 29.078 16.422 39.578 10.496 10.496 24.73 16.402 39.578 16.422zm0-96c10.609 0 20.781 4.2109 28.285 11.715 7.5 7.5 11.715 17.676 11.715 28.285 0 10.605-4.2148 20.781-11.715 28.281-7.5039 7.5039-17.676 11.719-28.285 11.719s-20.781-4.2148-28.285-11.719c-7.5-7.5-11.715-17.676-11.715-28.281 0.011719-10.605 4.2305-20.773 11.73-28.273 7.4961-7.4961 17.664-11.715 28.27-11.727zm-24 252c2.1211 0 4.1562 0.83984 5.6562 2.3398s2.3438 3.5352 2.3438 5.6602c0.011719 7.4609-2.9648 14.621-8.2617 19.879-5.2969 5.2578-12.477 8.1797-19.941 8.1172-7.4648-0.066407-14.59-3.1133-19.797-8.4609-5.207 5.3477-12.332 8.3945-19.797 8.4609-7.4648 0.0625-14.645-2.8594-19.941-8.1172-5.2969-5.2578-8.2734-12.418-8.2617-19.879 0-4.4219 3.582-8 8-8s8 3.5781 8 8c0 6.625 5.3711 12 12 12s12-5.375 12-12c0-4.4219 3.582-8 8-8s8 3.5781 8 8c0 6.625 5.3711 12 12 12s12-5.375 12-12c0-4.4219 3.582-8 8-8zm128-44c2.1211 0 4.1562 0.83984 5.6562 2.3398s2.3438 3.5352 2.3438 5.6602c0.011719 7.4609-2.9648 14.621-8.2617 19.879-5.2969 5.2578-12.477 8.1797-19.941 8.1172-7.4648-0.066407-14.59-3.1133-19.797-8.4609-5.207 5.3477-12.332 8.3945-19.797 8.4609-7.4648 0.0625-14.645-2.8594-19.941-8.1172-5.2969-5.2578-8.2734-12.418-8.2617-19.879 0-4.4219 3.582-8 8-8s8 3.5781 8 8c0 6.625 5.3711 12 12 12s12-5.375 12-12c0-4.4219 3.582-8 8-8s8 3.5781 8 8c0 6.625 5.3711 12 12 12s12-5.375 12-12c0-4.4219 3.582-8 8-8zm-112-248c0-3.2383 1.9492-6.1562 4.9375-7.3945 2.9922-1.2383 6.4297-0.55078 8.7188 1.7344 2.2891 2.2891 2.9727 5.7305 1.7344 8.7188-1.2383 2.9922-4.1562 4.9414-7.3906 4.9414-4.418 0-8-3.582-8-8zm8 152c3.2344 0 6.1523 1.9453 7.3906 4.9375 1.2383 2.9883 0.55469 6.4297-1.7344 8.7188-2.2891 2.2852-5.7266 2.9727-8.7188 1.7344-2.9883-1.2383-4.9375-4.1562-4.9375-7.3906 0-4.4219 3.582-8 8-8zm-62.223-122.91c-2.2891-2.2891-2.9766-5.7305-1.7383-8.7188 1.2383-2.9883 4.1562-4.9375 7.3945-4.9375 3.2344 0 6.1523 1.9492 7.3906 4.9375 1.2383 2.9883 0.55078 6.4297-1.7344 8.7188-3.125 3.125-8.1914 3.125-11.312 0zm124.45 101.79c2.2891 2.2852 2.9766 5.7266 1.7383 8.7188-1.2383 2.9883-4.1562 4.9375-7.3945 4.9375-3.2344 0-6.1523-1.9492-7.3906-4.9375-1.2383-2.9922-0.55078-6.4336 1.7344-8.7188 3.125-3.125 8.1914-3.125 11.312 0zm-150.22-50.879c0-3.2383 1.9492-6.1562 4.9375-7.3945 2.9922-1.2383 6.4297-0.55078 8.7188 1.7344 2.2891 2.2891 2.9727 5.7305 1.7344 8.7188-1.2383 2.9922-4.1562 4.9414-7.3906 4.9414-4.418 0-8-3.582-8-8zm160 0c0-3.2383 1.9492-6.1562 4.9375-7.3945 2.9922-1.2383 6.4297-0.55078 8.7188 1.7344 2.2891 2.2891 2.9727 5.7305 1.7344 8.7188-1.2383 2.9922-4.1562 4.9414-7.3906 4.9414-4.418 0-8-3.582-8-8zm-134.22 62.223c-2.2891-2.2891-2.9766-5.7305-1.7383-8.7188 1.2383-2.9883 4.1562-4.9414 7.3945-4.9414 3.2344 0 6.1523 1.9531 7.3906 4.9414s0.55078 6.4297-1.7344 8.7188c-3.125 3.1211-8.1914 3.1211-11.312 0zm113.13-113.14c-2.2852-2.2891-2.9727-5.7305-1.7344-8.7188 1.2383-2.9883 4.1562-4.9375 7.3906-4.9375 3.2383 0 6.1562 1.9492 7.3945 4.9375 1.2383 2.9883 0.55078 6.4297-1.7383 8.7188-3.1211 3.125-8.1875 3.125-11.312 0z"/>
</svg>
